<svg width="33" height="26" viewBox="0 0 33 26" fill="none" xmlns="http://www.w3.org/2000/svg">
<path d="M5 2.78784H25.2549C27.4638 2.78809 29.2549 4.57886 29.2549 6.78784V16.7673C29.2546 18.9761 27.4637 20.7671 25.2549 20.7673H5C2.79101 20.7673 1.00024 18.9763 1 16.7673V6.78784C1 4.5787 2.79086 2.78784 5 2.78784Z" fill="#FFB343" stroke="#FF7E42" stroke-width="2"/>
<path d="M20.7803 12.0922C21.0937 12.288 21.0937 12.7443 20.7803 12.9402L12.6879 17.9978C12.3549 18.2059 11.9229 17.9665 11.9229 17.5738V7.45851C11.9229 7.06579 12.3549 6.82637 12.6879 7.03451L20.7803 12.0922Z" fill="#35DDF1"/>
<path d="M15.6262 23.9514C15.3621 24.371 15.4943 24.9257 15.9193 25.181C16.3381 25.4327 16.8816 25.2971 17.1333 24.8783L24.0877 13.3048L30.8456 0.924826C30.9246 0.780165 30.8754 0.59897 30.7341 0.514087C30.5907 0.427933 30.4048 0.472257 30.3157 0.613827L15.6262 23.9514Z" fill="#4272FF"/>
</svg>
