<svg width="32" height="27" viewBox="0 0 32 27" fill="none" xmlns="http://www.w3.org/2000/svg">
<path d="M5 2.69849H24.6621C26.8711 2.69869 28.6621 4.48947 28.6621 6.69849V16.2864C28.662 18.4953 26.871 20.2862 24.6621 20.2864H5C2.79094 20.2864 1.00013 18.4954 1 16.2864V6.69849L1.00488 6.49243C1.11211 4.37905 2.85996 2.69849 5 2.69849Z" fill="#FFB343" stroke="#FF7E42" stroke-width="2"/>
<path d="M20.3599 11.7925C20.6732 11.9884 20.6732 12.4447 20.3599 12.6405L12.4543 17.5814C12.1213 17.7896 11.6893 17.5502 11.6893 17.1574V7.27565C11.6893 6.88293 12.1213 6.64351 12.4543 6.85164L20.3599 11.7925Z" fill="#35DDF1"/>
<path d="M31.1674 2.77424C31.5854 2.1305 31.4025 1.26974 30.7587 0.851688C30.115 0.433633 29.2542 0.61659 28.8361 1.26033L22.284 11.3495L14.9749 22.6043L17.3061 24.1182L31.1674 2.77424Z" fill="#10B981"/>
<path d="M16.3593 24.5252C15.6227 24.9035 14.7719 24.2739 14.9182 23.4589L15.1199 22.3359L17.5449 23.9163L16.3593 24.5252Z" fill="#10B981"/>
</svg>
